<svg height="512pt" viewBox="0 0 512 512" width="512pt" xmlns="http://www.w3.org/2000/svg"><path d="m512 256c0 141.386719-114.613281 256-256 256s-256-114.613281-256-256 114.613281-256 256-256 256 114.613281 256 256zm0 0" fill="#ff8945"/><path d="m512 256c0-16.042969-1.492188-31.738281-4.3125-46.964844l-105.472656-105.472656-292.429688 35.855469 191.734375 191.730469-176.585937 106.875 65.484375 65.484374c20.933593 5.53125 42.910156 8.492188 65.582031 8.492188 141.386719 0 256-114.613281 256-256zm0 0" fill="#f63"/><path d="m124.933594 104.964844h262.132812v333.058594h-262.132812zm0 0" fill="#fff"/><path d="m255.59375 104.964844h131.472656v333.058594h-131.472656zm0 0" fill="#e9edf5"/><path d="m109.785156 103.5625h292.429688v35.855469h-292.429688zm0 0" fill="#2864f0"/><path d="m255.59375 103.5625h146.621094v35.855469h-146.621094zm0 0" fill="#27488f"/><path d="m230.148438 158.230469h51.703124v73.820312h-51.703124zm0 0" fill="#bfe1ff"/><path d="m255.59375 158.230469h26.257812v73.820312h-26.257812zm0 0" fill="#a3d4ff"/><path d="m230.148438 195.140625h51.703124v36.910156h-51.703124zm0 0" fill="#a3d4ff"/><path d="m255.59375 195.140625h26.257812v36.910156h-26.257812zm0 0" fill="#87c7ff"/><path d="m145.734375 158.230469h51.707031v73.820312h-51.707031zm0 0" fill="#bfe1ff"/><path d="m145.734375 195.140625h51.707031v36.910156h-51.707031zm0 0" fill="#a3d4ff"/><path d="m314.558594 158.230469h51.707031v73.820312h-51.707031zm0 0" fill="#a3d4ff"/><path d="m314.558594 195.140625h51.707031v36.910156h-51.707031zm0 0" fill="#87c7ff"/><path d="m230.148438 254.945312h51.703124v73.820313h-51.703124zm0 0" fill="#bfe1ff"/><path d="m255.59375 254.945312h26.257812v73.820313h-26.257812zm0 0" fill="#a3d4ff"/><path d="m230.148438 291.855469h51.703124v36.910156h-51.703124zm0 0" fill="#a3d4ff"/><path d="m255.59375 291.855469h26.257812v36.910156h-26.257812zm0 0" fill="#87c7ff"/><path d="m145.734375 254.945312h51.707031v73.820313h-51.707031zm0 0" fill="#bfe1ff"/><path d="m145.734375 291.855469h51.707031v36.910156h-51.707031zm0 0" fill="#a3d4ff"/><path d="m314.558594 254.945312h51.707031v73.820313h-51.707031zm0 0" fill="#a3d4ff"/><path d="m314.558594 291.855469h51.707031v36.910156h-51.707031zm0 0" fill="#87c7ff"/><path d="m160.140625 356.789062h191.71875v81.234376h-191.71875zm0 0" fill="#bfe1ff"/><path d="m255.59375 356.789062h96.265625v81.234376h-96.265625zm0 0" fill="#a3d4ff"/><path d="m226.410156 381.253906c8.167969 0 14.792969-6.625 14.792969-14.796875v-20.089843h-29.589844v20.089843c0 8.171875 6.625 14.796875 14.796875 14.796875zm0 0" fill="#2864f0"/><path d="m256 381.253906c8.171875 0 14.796875-6.625 14.796875-14.796875v-20.089843h-29.59375v20.089843c0 8.171875 6.625 14.796875 14.796875 14.796875zm0 0" fill="#4a98f7"/><path d="m255.59375 346.367188v34.863281c.136719.003906.269531.023437.40625.023437 8.171875 0 14.796875-6.625 14.796875-14.796875v-20.09375h-15.203125zm0 0" fill="#4a7aff"/><path d="m285.589844 381.253906c8.171875 0 14.796875-6.625 14.796875-14.796875v-20.089843h-29.589844v20.089843c0 8.171875 6.625 14.796875 14.792969 14.796875zm0 0" fill="#27488f"/><path d="m167.226562 381.253906c8.171876 0 14.796876-6.625 14.796876-14.796875v-20.089843h-29.589844v20.089843c0 8.171875 6.621094 14.796875 14.792968 14.796875zm0 0" fill="#2864f0"/><path d="m344.773438 381.253906c8.171874 0 14.796874-6.625 14.796874-14.796875v-20.089843h-29.59375v20.089843c0 8.171875 6.625 14.796875 14.796876 14.796875zm0 0" fill="#27488f"/><path d="m315.183594 381.253906c8.167968 0 14.792968-6.625 14.792968-14.796875v-20.089843h-29.589843v20.089843c0 8.171875 6.625 14.796875 14.796875 14.796875zm0 0" fill="#4a7aff"/><path d="m196.816406 381.253906c8.171875 0 14.796875-6.625 14.796875-14.796875v-20.089843h-29.589843v20.089843c0 8.171875 6.625 14.796875 14.792968 14.796875zm0 0" fill="#4a98f7"/></svg>